<?xml version="1.0" encoding="UTF-8"?>
<svg id="Capa_2" data-name="Capa 2" xmlns="http://www.w3.org/2000/svg" viewBox="0 0 47.74 38.05">
  <defs>
    <style>
      .cls-1 {
        fill: #fff;
      }

      .cls-2 {
        fill: #8012f9;
      }

      .cls-3 {
        fill: none;
        stroke: #fff;
        stroke-miterlimit: 10;
        stroke-width: 1.51px;
      }

      .cls-4 {
        fill: #8912fc;
      }
    </style>
  </defs>
  <g id="tecnologias">
    <g id="Bootstrap">
      <path class="cls-2" d="M43.33,13.3c-.81-2.63-.93-5.84-.83-8.33.09-2.59-1.93-4.97-4.65-4.97H9.91c-2.73,0-4.74,2.39-4.65,4.97.08,2.49-.03,5.71-.83,8.33-.82,2.63-2.18,4.3-4.43,4.51v2.42c2.24.21,3.62,1.88,4.43,4.51.81,2.62.93,5.84.83,8.33-.09,2.59,1.93,4.97,4.65,4.97h27.92c2.73,0,4.74-2.39,4.65-4.97-.08-2.49.03-5.71.83-8.33.82-2.63,2.18-4.3,4.43-4.51v-2.42c-2.23-.21-3.61-1.88-4.42-4.51h0Z"/>
      <path class="cls-3" d="M23.65,18.71h-4.26v6.66h4.44c2.91,0,4.44-1.16,4.44-3.36s-1.58-3.3-4.63-3.3h0Z"/>
      <path class="cls-1" d="M24.5,27.94h-8.32V7.7h8.27c3.68,0,6.09,1.99,6.09,5.05,0,2.15-1.62,4.07-3.7,4.4v.11c2.82.31,4.71,2.26,4.71,4.95,0,3.58-2.66,5.73-7.07,5.73h0Z"/>
      <path class="cls-4" d="M27.32,13.19c0-1.88-1.33-2.91-3.65-2.91h-4.28v6.05h3.61c2.79,0,4.32-1.13,4.32-3.13h0Z"/>
      <path class="cls-4" d="M27.8,21.93c0-1.88-1.33-2.91-3.65-2.91h-4.28v6.05h3.61c2.79,0,4.32-1.13,4.32-3.13h0Z"/>
    </g>
  </g>
</svg>