<?xml version="1.0" encoding="UTF-8"?>
<svg id="Capa_2" data-name="Capa 2" xmlns="http://www.w3.org/2000/svg" viewBox="0 0 45.04 30.02">
  <defs>
    <style>
      .cls-1 {
        fill: #38bdf8;
      }
    </style>
  </defs>
  <g id="tecnologias">
    <g id="Tailwind">
      <path class="cls-1" d="M12.01,13.51c-3.08,0-5.72.83-7.8,2.61C2.15,17.89.78,20.47.04,23.67c-.16.7.2,1.43.86,1.72.66.28,1.42.08,1.85-.52.95-1.36,1.89-2.17,2.81-2.6.87-.4,1.83-.48,2.92-.18,1.1.3,1.95,1.16,3.29,2.61l.04.05c1.02,1.09,2.24,2.44,3.93,3.47,1.75,1.08,3.92,1.8,6.8,1.8,3.08,0,5.72-.83,7.8-2.61,2.07-1.77,3.41-4.35,4.16-7.55.16-.7-.2-1.43-.86-1.72-.66-.28-1.42-.08-1.85.52-.95,1.36-1.89,2.17-2.81,2.6-.87.4-1.83.48-2.92.18-1.1-.3-1.95-1.16-3.28-2.61l-.05-.05c-1-1.09-2.24-2.44-3.93-3.47-1.73-1.08-3.91-1.8-6.78-1.8Z"/>
      <path class="cls-1" d="M22.52,0c-3.08,0-5.72.83-7.8,2.61-2.07,1.77-3.41,4.35-4.16,7.55h-.02c-.16.7.2,1.43.86,1.72.66.28,1.42.08,1.85-.52.95-1.36,1.89-2.17,2.81-2.6.87-.4,1.83-.48,2.92-.18,1.1.3,1.95,1.16,3.28,2.61l.05.05c1.02,1.09,2.24,2.44,3.93,3.47,1.75,1.08,3.92,1.8,6.8,1.8,3.08,0,5.72-.83,7.8-2.61,2.07-1.77,3.41-4.35,4.16-7.55.16-.7-.2-1.43-.86-1.72-.66-.28-1.42-.08-1.85.52-.95,1.36-1.89,2.17-2.81,2.6-.87.4-1.83.48-2.92.18-1.1-.3-1.95-1.16-3.29-2.61l-.04-.05c-1.02-1.09-2.24-2.44-3.93-3.47-1.75-1.08-3.92-1.8-6.8-1.8h.02Z"/>
    </g>
  </g>
</svg>